<svg width="58" height="12" viewBox="0 0 58 12" fill="none" xmlns="http://www.w3.org/2000/svg">
<path d="M54.5795 10.1279C53.9232 10.1279 53.3565 9.99154 52.8792 9.71882C52.4048 9.44325 52.0397 9.05404 51.784 8.5512C51.5284 8.04552 51.4005 7.45035 51.4005 6.76569C51.4005 6.0924 51.5284 5.50149 51.784 4.99296C52.0426 4.4816 52.4034 4.08387 52.8664 3.79978C53.3295 3.51285 53.8735 3.36938 54.4985 3.36938C54.9019 3.36938 55.2826 3.43473 55.6406 3.56541C56.0014 3.69325 56.3195 3.89211 56.5951 4.162C56.8735 4.43189 57.0923 4.77564 57.2514 5.19325C57.4105 5.60802 57.49 6.10234 57.49 6.6762V7.14921H52.1249V6.10944H56.0113C56.0085 5.81399 55.9445 5.5512 55.8195 5.32109C55.6945 5.08813 55.5198 4.9049 55.2954 4.77137C55.0738 4.63785 54.8153 4.57109 54.5198 4.57109C54.2045 4.57109 53.9275 4.64779 53.6889 4.8012C53.4502 4.95177 53.2641 5.15063 53.1306 5.39779C52.9999 5.64211 52.9332 5.91058 52.9303 6.20319V7.11086C52.9303 7.49154 52.9999 7.81825 53.1391 8.09098C53.2784 8.36086 53.473 8.56825 53.723 8.71313C53.973 8.85518 54.2656 8.9262 54.6008 8.9262C54.8252 8.9262 55.0284 8.89495 55.2102 8.83245C55.392 8.76711 55.5497 8.67194 55.6832 8.54694C55.8167 8.42194 55.9176 8.26711 55.9857 8.08245L57.4261 8.24438C57.3352 8.62507 57.1619 8.95745 56.9062 9.24154C56.6534 9.52279 56.3295 9.74154 55.9346 9.89779C55.5397 10.0512 55.088 10.1279 54.5795 10.1279Z" fill="black"/>
<path d="M47.1935 10V3.45459H48.6892V4.5455H48.7574C48.8767 4.16766 49.0813 3.87647 49.371 3.67192C49.6637 3.46453 49.9975 3.36084 50.3725 3.36084C50.4577 3.36084 50.5529 3.3651 50.658 3.37362C50.7659 3.37931 50.8554 3.38925 50.9264 3.40345V4.82249C50.8611 4.79976 50.7574 4.77987 50.6154 4.76283C50.4762 4.74294 50.3412 4.733 50.2105 4.733C49.9293 4.733 49.6764 4.79408 49.452 4.91624C49.2304 5.03556 49.0557 5.20175 48.9279 5.41482C48.8 5.62789 48.7361 5.87362 48.7361 6.15203V10H47.1935Z" fill="black"/>
<path d="M42.7478 10.1279C42.1086 10.1279 41.5546 9.98728 41.0859 9.70603C40.6171 9.42478 40.2535 9.03132 39.995 8.52563C39.7393 8.01995 39.6115 7.42904 39.6115 6.75291C39.6115 6.07677 39.7393 5.48444 39.995 4.97592C40.2535 4.4674 40.6171 4.07251 41.0859 3.79126C41.5546 3.51001 42.1086 3.36938 42.7478 3.36938C43.387 3.36938 43.941 3.51001 44.4097 3.79126C44.8785 4.07251 45.2407 4.4674 45.4964 4.97592C45.7549 5.48444 45.8842 6.07677 45.8842 6.75291C45.8842 7.42904 45.7549 8.01995 45.4964 8.52563C45.2407 9.03132 44.8785 9.42478 44.4097 9.70603C43.941 9.98728 43.387 10.1279 42.7478 10.1279ZM42.7563 8.89211C43.1029 8.89211 43.3927 8.79694 43.6257 8.6066C43.8586 8.41342 44.0319 8.1549 44.1455 7.83103C44.262 7.50717 44.3203 7.14637 44.3203 6.74865C44.3203 6.34808 44.262 5.98586 44.1455 5.662C44.0319 5.33529 43.8586 5.07535 43.6257 4.88217C43.3927 4.68899 43.1029 4.5924 42.7563 4.5924C42.4012 4.5924 42.1058 4.68899 41.87 4.88217C41.637 5.07535 41.4623 5.33529 41.3458 5.662C41.2322 5.98586 41.1754 6.34808 41.1754 6.74865C41.1754 7.14637 41.2322 7.50717 41.3458 7.83103C41.4623 8.1549 41.637 8.41342 41.87 8.6066C42.1058 8.79694 42.4012 8.89211 42.7563 8.89211Z" fill="black"/>
<path d="M38.6729 3.45453V4.64772H34.9102V3.45453H38.6729ZM35.8391 1.88635H37.3817V8.03124C37.3817 8.23863 37.413 8.39772 37.4755 8.50851C37.5408 8.61647 37.6261 8.69033 37.7312 8.7301C37.8363 8.76988 37.9528 8.78976 38.0806 8.78976C38.1772 8.78976 38.2653 8.78266 38.3448 8.76846C38.4272 8.75425 38.4897 8.74147 38.5323 8.7301L38.7923 9.93607C38.7099 9.96448 38.592 9.99573 38.4386 10.0298C38.288 10.0639 38.1033 10.0838 37.8846 10.0895C37.4982 10.1008 37.1502 10.0426 36.8406 9.91476C36.5309 9.78408 36.2852 9.58238 36.1033 9.30965C35.9244 9.03692 35.8363 8.69601 35.8391 8.28692V1.88635Z" fill="black"/>
<path d="M32.4226 3.67191C32.3828 3.29975 32.2152 3.00998 31.9198 2.80259C31.6272 2.5952 31.2465 2.49151 30.7777 2.49151C30.4482 2.49151 30.1655 2.54123 29.9297 2.64066C29.6939 2.74009 29.5135 2.87503 29.3885 3.04549C29.2635 3.21594 29.1996 3.41055 29.1968 3.6293C29.1968 3.81111 29.238 3.96878 29.3203 4.10231C29.4056 4.23583 29.5206 4.34947 29.6655 4.44322C29.8104 4.53412 29.9709 4.61083 30.147 4.67333C30.3232 4.73583 30.5007 4.78839 30.6797 4.831L31.4979 5.03554C31.8274 5.11225 32.1442 5.21594 32.4482 5.34662C32.755 5.47731 33.0292 5.64208 33.2706 5.84094C33.5149 6.03981 33.7081 6.27986 33.8502 6.56111C33.9922 6.84236 34.0632 7.17191 34.0632 7.54975C34.0632 8.06111 33.9326 8.5114 33.6712 8.9006C33.4098 9.28697 33.032 9.58952 32.5377 9.80827C32.0462 10.0242 31.451 10.1321 30.7522 10.1321C30.0732 10.1321 29.4837 10.027 28.9837 9.81679C28.4865 9.60657 28.0973 9.29975 27.8161 8.89634C27.5377 8.49293 27.3871 8.00145 27.3644 7.42191H28.9198C28.9425 7.72589 29.0363 7.97873 29.201 8.18043C29.3658 8.38214 29.5803 8.5327 29.8445 8.63214C30.1115 8.73157 30.4098 8.78128 30.7394 8.78128C31.0831 8.78128 31.3843 8.73015 31.6428 8.62787C31.9042 8.52276 32.1087 8.37787 32.2564 8.19322C32.4042 8.00572 32.4794 7.78697 32.4823 7.53697C32.4794 7.30969 32.4127 7.12219 32.282 6.97447C32.1513 6.8239 31.9681 6.6989 31.7323 6.59947C31.4993 6.49719 31.2266 6.40628 30.9141 6.32674L29.9212 6.07106C29.2024 5.8864 28.6343 5.60657 28.2167 5.23157C27.8019 4.85373 27.5945 4.35231 27.5945 3.72731C27.5945 3.2131 27.7337 2.76282 28.0121 2.37645C28.2934 1.99009 28.6755 1.69037 29.1584 1.47731C29.6414 1.2614 30.1882 1.15344 30.799 1.15344C31.4184 1.15344 31.961 1.2614 32.4269 1.47731C32.8956 1.69037 33.2635 1.98725 33.5306 2.36793C33.7976 2.74577 33.9354 3.18043 33.9439 3.67191H32.4226Z" fill="black"/>
<path d="M23.5408 10.1279C22.8874 10.1279 22.3263 9.98444 21.8575 9.69751C21.3916 9.41058 21.0323 9.01427 20.7794 8.50859C20.5294 8.00007 20.4044 7.41484 20.4044 6.75291C20.4044 6.08814 20.5323 5.50149 20.7879 4.99296C21.0436 4.4816 21.4044 4.08387 21.8703 3.79978C22.3391 3.51285 22.8931 3.36938 23.5323 3.36938C24.0635 3.36938 24.5337 3.4674 24.9428 3.66342C25.3547 3.8566 25.6828 4.13075 25.9271 4.48586C26.1715 4.83813 26.3107 5.25007 26.3448 5.72166H24.8703C24.8107 5.40632 24.6686 5.14353 24.4442 4.93331C24.2226 4.72024 23.9257 4.6137 23.5536 4.6137C23.2382 4.6137 22.9612 4.69893 22.7226 4.86938C22.484 5.037 22.2979 5.27848 22.1644 5.59382C22.0337 5.90916 21.9683 6.287 21.9683 6.72734C21.9683 7.17336 22.0337 7.55689 22.1644 7.87791C22.295 8.19609 22.4783 8.44183 22.7141 8.61512C22.9527 8.78558 23.2325 8.87081 23.5536 8.87081C23.7808 8.87081 23.984 8.82819 24.1629 8.74296C24.3448 8.6549 24.4967 8.52848 24.6189 8.3637C24.7411 8.19893 24.8249 7.99865 24.8703 7.76285H26.3448C26.3078 8.22592 26.1715 8.63643 25.9357 8.99438C25.6999 9.3495 25.3789 9.62791 24.9726 9.82961C24.5664 10.0285 24.0891 10.1279 23.5408 10.1279Z" fill="black"/>
<path d="M13.125 9.99998V1.27271H16.3977C17.0682 1.27271 17.6307 1.39771 18.0852 1.64771C18.5426 1.89771 18.8878 2.24146 19.1207 2.67896C19.3565 3.11361 19.4744 3.60793 19.4744 4.16191C19.4744 4.72157 19.3565 5.21873 19.1207 5.65339C18.8849 6.08805 18.5369 6.43038 18.0767 6.68038C17.6165 6.92754 17.0497 7.05111 16.3764 7.05111H14.2074V5.7514H16.1634C16.5554 5.7514 16.8764 5.68322 17.1264 5.54685C17.3764 5.41049 17.5611 5.22299 17.6804 4.98435C17.8026 4.74572 17.8636 4.47157 17.8636 4.16191C17.8636 3.85225 17.8026 3.57952 17.6804 3.34373C17.5611 3.10793 17.375 2.92469 17.1222 2.79401C16.8722 2.66049 16.5497 2.59373 16.1548 2.59373H14.706V9.99998H13.125Z" fill="black"/>
<path d="M0 4.5H4.125V0H3.75C1.67812 0 0 1.67812 0 3.75V4.5Z" fill="#007AFF"/>
<path d="M0 5V8C0 10.0719 1.67812 11.75 3.75 11.75H5.25C7.32188 11.75 9 10.0719 9 8V5H4.5H0Z" fill="#007AFF"/>
<path d="M9.125 4.5V3.75C9.125 1.67812 7.44688 0 5.375 0H5V4.5H9.125Z" fill="#007AFF"/>
</svg>
