<?xml version="1.0" encoding="utf-8"?>
<svg xmlns="http://www.w3.org/2000/svg" id="Capa_1" viewBox="0 0 74.15 14">
  <defs>
    <style>.cls-1{fill:#c30046;}.cls-1,.cls-2,.cls-3,.cls-4,.cls-5,.cls-6{stroke-width:0px;}.cls-2{fill:#2d509a;}.cls-3{fill:#394049;}.cls-4{fill:#d47c1d;}.cls-5{fill:#fff;}.cls-6{fill:#ec6b00;}</style>
  </defs>
  <polygon class="cls-4" points="5 7.94 5 7.94 5 6.42 4.99 6.42 4.99 6.42 0 8.61 0 10.14 5 7.95 5 7.94"/>
  <polygon class="cls-4" points="5 9.48 0 11.67 0 11.67 5 11.67 5 9.48"/>
  <polygon class="cls-4" points="5 6.42 6.6 5.72 6.6 4.17 4.99 4.87 4.99 6.42 5 6.41 5 6.42"/>
  <polygon class="cls-6" points="4.99 6.42 4.99 6.42 5 6.41 4.99 6.42"/>
  <polygon class="cls-4" points="5 7.95 5 9.48 6.6 8.77 6.6 7.24 5 7.94 5 7.95 5 7.95"/>
  <rect class="cls-6" height="0" width="0" x="5" y="7.94"/>
  <polygon class="cls-4" points="9.01 11.67 14 11.67 14 5.1 9.01 1.03 9.01 11.67"/>
  <polygon class="cls-2" points="9.01 11.67 9.01 11.67 5 11.67 0 11.67 0 14 14 14 14 11.67 9.01 11.67"/>
  <path class="cls-3" d="M24.4,10.86c.38,0,.75-.06,1.08-.16l.2-1.09c-.31-.14-.69-.2-1.12-.2-.6,0-1.04.2-1.13.68-.08.46.22.77.97.77M26.98,8.52l-.51,2.78c-.65.29-1.58.5-2.44.5-1.5,0-2.12-.63-1.94-1.65.19-1.05,1.21-1.62,2.44-1.61.48,0,.89.06,1.22.19l.05-.29c.11-.61-.23-.98-1.04-.98-.61,0-1.17.24-1.5.45-.27-.15-.42-.43-.41-.78.35-.29,1.2-.72,2.19-.72,1.34,0,2.22.6,1.94,2.1"/>
  <path class="cls-3" d="M58.8,10.86c.38,0,.75-.06,1.08-.16l.2-1.09c-.31-.14-.69-.2-1.12-.2-.6,0-1.04.2-1.13.68-.08.46.22.77.97.77M61.37,8.52l-.51,2.78c-.65.29-1.58.5-2.44.5-1.5,0-2.12-.63-1.94-1.65.19-1.05,1.21-1.62,2.44-1.61.48,0,.89.06,1.22.19l.05-.29c.11-.61-.23-.98-1.04-.98-.61,0-1.17.24-1.5.45-.27-.15-.42-.43-.41-.78.35-.29,1.2-.72,2.19-.72,1.34,0,2.22.6,1.94,2.1"/>
  <path class="cls-3" d="M32.85,9.12c.3-1.63,1.66-2.71,3.19-2.71.76,0,1.35.3,1.61.58-.15.34-.46.68-.81.87-.22-.21-.52-.4-.98-.4-1,0-1.61.76-1.77,1.65-.16.87.16,1.64,1.18,1.64.6,0,.96-.25,1.21-.43.28.16.45.45.49.83-.39.32-1.1.65-1.9.65-1.62,0-2.52-.99-2.21-2.68"/>
  <path class="cls-3" d="M41.46,9.11c.18-.98-.25-1.65-1.17-1.65s-1.59.68-1.77,1.65c-.18.97.26,1.63,1.17,1.63s1.59-.67,1.77-1.63M37.3,9.11c.29-1.58,1.65-2.7,3.21-2.7s2.47,1.12,2.17,2.7c-.29,1.57-1.64,2.69-3.21,2.69s-2.47-1.1-2.17-2.69"/>
  <path class="cls-3" d="M47.81,11.17c.17-.39.43-.68.71-.84.27.23.67.5,1.47.5.72,0,1.03-.27,1.09-.61.06-.34-.19-.54-1.08-.68-.87-.14-1.67-.47-1.47-1.54.17-.94,1.14-1.59,2.43-1.59.92,0,1.53.26,1.82.49-.12.38-.34.68-.62.87-.32-.2-.81-.39-1.42-.39-.64,0-.96.2-1.02.53-.06.33.13.49.98.63,1.07.17,1.81.55,1.62,1.55-.2,1.06-1.13,1.71-2.52,1.71-1.14,0-1.74-.4-1.98-.64"/>
  <path class="cls-3" d="M71.41,9.11c.18-.98-.25-1.65-1.16-1.65s-1.59.68-1.77,1.65c-.18.97.26,1.63,1.17,1.63s1.59-.67,1.77-1.63M67.25,9.11c.29-1.58,1.65-2.7,3.21-2.7s2.46,1.12,2.17,2.7c-.29,1.57-1.64,2.69-3.21,2.69s-2.47-1.1-2.17-2.69"/>
  <path class="cls-3" d="M65.23,10.58c-.34.12-.69.17-1.04.16-.92,0-1.44-.62-1.26-1.62.18-.99.97-1.62,1.88-1.62.37,0,.69.04.95.22l-.53,2.85ZM66.25,5.08l-.28,1.51c-.26-.11-.57-.16-1-.16-1.52,0-2.96,1.04-3.27,2.71-.32,1.72.65,2.66,2.32,2.66.83,0,1.71-.23,2.29-.5l1.21-6.57-1.28.35Z"/>
  <path class="cls-3" d="M56.77,6.64h-1.9l.24-1.32-1.26.35-.81,4.41c-.23,1.22.49,1.72,1.58,1.72.7,0,1.26-.28,1.62-.55.02-.33-.13-.68-.36-.85-.19.15-.55.34-.91.34-.5,0-.82-.19-.68-.94l.4-2.18h1.9c.08-.17.12-.33.15-.5.03-.16.05-.32.04-.48"/>
  <path class="cls-3" d="M48.58,4.76h-4.41s-.43,0-.43,0l.24.78s.02.08.02.12c0,.02,0,.04,0,.06l-1.09,5.92h4.5c.09-.18.14-.38.18-.57.03-.17.04-.35.02-.53h-3.29l.35-1.89h2.84c.08-.19.13-.36.16-.55.03-.18.05-.36.04-.55h-2.84l.31-1.71h3.2c.08-.18.13-.35.16-.55.03-.18.05-.39.04-.56"/>
  <path class="cls-3" d="M30.5,6.41c-.49,0-.95.09-1.36.22-.03,0-.07.02-.1.02-.04,0-.08,0-.11-.02h0s-.85-.25-.85-.25l-.15.84h0s-.82,4.43-.82,4.43c.2.04.4.05.59.05s.42-.01.62-.05l.71-3.84c.26-.14.71-.28,1.18-.28.78,0,1.17.35,1,1.29l-.52,2.83c.21.04.4.05.6.05s.41-.01.62-.05l.58-3.12c.21-1.17-.33-2.11-1.97-2.11"/>
  <path class="cls-3" d="M20.84,6.61c-.12.64-.54,1.01-1.44,1.01h-1.06l.35-1.9c.34-.03.66-.04.97-.04.89,0,1.29.34,1.18.93M20.54,9.67c-.14.77-.68,1.12-1.81,1.12-.37,0-.69-.02-.97-.05l.39-2.09h1.16c.92,0,1.36.34,1.24,1.03M22.02,6.58c.22-1.21-.44-1.9-2.26-1.9-.01,0-.03,0-.04,0h-2.54s.28.82.28.82c.01.04.02.09.02.13,0,.03,0,.06,0,.09l-1.09,5.91c.53.11,1.2.17,2.11.17,1.94,0,3.02-.8,3.26-2.11.16-.87-.2-1.38-.88-1.63.57-.26,1-.71,1.14-1.48"/>
  <path class="cls-1" d="M0,7.04l4.99-2.17v-1.6h0c1.61-.25,2.9-1.01,4.01-2.24h0s4.99,4.08,4.99,4.08V0H0v7.04Z"/>
  <path class="cls-5" d="M5,11.67h4.01V1.03h0c-1.12,1.23-2.41,1.99-4.01,2.24h0v1.61L0,7.04v1.57l4.99-2.19v-1.55l1.6-.7v1.55l-1.6.7v1.53l1.6-.7v1.53l-1.6.7v-1.53L0,10.14v1.53l5-2.19v2.19Z"/>
</svg>